<svg xmlns="http://www.w3.org/2000/svg" width="38" height="38"><path d="M 18.682 0.54 C 8.44 0.54 0.138 8.827 0.138 19.05 C 0.138 29.273 8.44 37.559 18.682 37.559 C 28.924 37.559 37.226 29.273 37.226 19.05 C 37.226 8.827 28.924 0.54 18.682 0.54 Z M 16.16 29.044 C 14.489 30.713 11.659 30.592 8.595 27.535 C 5.532 24.477 6.074 18.978 6.074 18.978 C 6.074 18.978 11.584 18.437 14.648 21.495 C 17.71 24.552 17.832 27.377 16.16 29.044 Z M 14.347 14.044 C 14.347 9.72 18.627 6.214 18.627 6.214 C 18.627 6.214 22.906 9.72 22.906 14.044 C 22.906 18.369 20.989 20.452 18.627 20.452 C 16.264 20.452 14.347 18.369 14.347 14.044 Z M 28.668 27.535 C 25.604 30.592 22.774 30.713 21.104 29.044 C 19.432 27.377 19.553 24.552 22.616 21.494 C 25.68 18.437 31.189 18.978 31.189 18.978 C 31.189 18.978 31.731 24.477 28.668 27.535 Z" fill="#000"></path></svg>
