<svg xmlns="http://www.w3.org/2000/svg" width="400" height="400" version="1.0" viewBox="0 0 300 300"><path fill="#e7e8ff" d="M54.086 299.504h172.223a70.777 70.777 0 0 0 34.578-9.027c35.968-20.137 47.351-66.668 24.765-101.23l-5.91-9.044a56.561 56.561 0 0 1-5.582-50.836l7.942-21.097c11.492-30.543-13.797-62.29-46.02-57.778a42.744 42.744 0 0 1-28.012-5.734L161.715 16.78a91.617 91.617 0 0 0-71.832-9.855l-20.524 5.687C29.848 23.57 7.531 65.496 20.434 104.543l4.156 12.582c7.64 23.117-.969 48.512-21.07 62.16-22.747 15.445-30.383 45.52-17.778 70.004l6.352 12.336c11.98 23.266 35.894 37.879 61.992 37.879Zm0 0"/><path fill="#032068" d="M285.313 255.621c.261 20.078-13.348 37.031-20.262 42.969h-10.594c7.879-26.79 20.898-40.11 28.191-44.543 1.215-.738 2.645.148 2.664 1.574Zm0 0"/><path fill="#fff" d="M286.434 189.746c10.851 41.055-16.504 89.676-28.266 107.777h-23.836c10.238-77.46 27.402-96.285 49.102-109.007a2.032 2.032 0 0 1 3 1.23Zm0 0"/><path fill="#032068" fill-rule="evenodd" d="M283.969 189.438a.972.972 0 0 1 1.441.582c5.344 20.226 1.293 42.402-5.629 61.863-6.793 19.101-16.304 35.46-22.187 44.574h-22.051c5.094-37.977 11.867-61.57 19.98-77.223 8.172-15.757 17.723-23.511 28.446-29.797Zm3.488.035a3.088 3.088 0 0 0-4.555-1.88c-10.98 6.438-20.859 14.458-29.257 30.657-8.368 16.14-15.239 40.355-20.364 79.133l-.16 1.207h25.621l.313-.485c5.906-9.09 15.734-25.847 22.722-45.503 6.985-19.637 11.184-42.301 5.68-63.13Zm0 0"/><path fill="#032068" d="M248 215.004c9.375 34.406-1.355 70.156-8.371 83.586h-17.48c-3.93-41.93 12.046-72.422 22.554-84.406 1.04-1.184 2.883-.7 3.297.82Zm0 0"/><path fill="#032068" fill-rule="evenodd" d="m271.594 218.96 5.703-16.12 1.996.715-13.059 36.922 8.579-2.594.609 2.043-10.07 3.043-11.88 33.574 10.692-4 .738 2-12.359 4.621-6.621 18.719-1.996-.715 13.449-38.012-4.973-14.031 1.996-.719 4.102 11.57 11.895-33.62-3.707-12.458 2.027-.609Zm0 0"/><path fill="#fff" fill-rule="evenodd" d="m239.063 242.477 2.703-14.954 2.082.38-5.485 30.355 7.13-3.778.984 1.887-8.594 4.555-4.707 26.035 5.894-4.66 1.309 1.676-7.774 6.144-1.468 8.13-2.086-.38 3.77-20.851-6.216-8.153 1.68-1.297 5.047 6.618 5.254-29.086-5.031-5.47 1.554-1.448Zm0 0"/><path fill="#fff" d="m257.527 88.902 3.168-4.382c.563-.782 1.797-.38 1.793.585l-.023 5.282c0 .32.148.62.41.808l4.684 3.387c.753.547.406 1.734-.524 1.793l-5.828.352a.97.97 0 0 0-.719.378l-3.953 5.06c-.586.75-1.789.32-1.77-.634l.133-6.02a.985.985 0 0 0-.335-.765l-4.922-4.316c-.723-.633-.211-1.825.75-1.73l6.238.609a.976.976 0 0 0 .898-.407Zm0 0"/><path fill="#FC5050" d="m289.617 147.434 1.531-.836c.848-.465 1.786.43 1.368 1.297l-.735 1.527c-.136.289-.129.625.024.906l1.02 1.86c.445.816-.38 1.742-1.243 1.394l-2.02-.816a.999.999 0 0 0-.812.03l-2.184 1.09c-.851.427-1.753-.48-1.324-1.331l.985-1.961a.993.993 0 0 0 .027-.836l-.98-2.27c-.38-.883.597-1.738 1.421-1.238l1.938 1.164c.3.184.676.191.984.02Zm0 0"/><path fill="#fff" d="M9.805 78.484c0 13.618 11.035 24.66 24.644 24.66 4.7 0 9.09-1.316 12.828-3.601l7.418 2.633c1.188.422 2.38-.63 2.106-1.864l-1.809-8.207a24.55 24.55 0 0 0 4.098-13.62c0-13.618-11.035-24.66-24.64-24.66-13.61 0-24.645 11.042-24.645 24.66Zm0 0"/><path fill="#032068" fill-rule="evenodd" d="M34.45 54.36c-13.317 0-24.106 10.8-24.106 24.124 0 13.325 10.789 24.121 24.105 24.121 4.598 0 8.895-1.285 12.547-3.52l.219-.136 7.66 2.719a1.07 1.07 0 0 0 1.402-1.242L54.422 92l.125-.191a24.029 24.029 0 0 0 4.008-13.325c0-13.324-10.793-24.125-24.106-24.125ZM9.27 78.483c0-13.914 11.273-25.195 25.18-25.195 13.902 0 25.175 11.281 25.175 25.195a25.08 25.08 0 0 1-4.063 13.727l1.762 7.984c.364 1.645-1.222 3.047-2.808 2.485l-7.18-2.547a25.073 25.073 0 0 1-12.887 3.547c-13.906 0-25.18-11.282-25.18-25.196Zm0 0"/><path fill="#FC5050" d="M31.2 85.406a.525.525 0 0 1-.528-.539c.039-1.812.3-3.277.777-4.394.528-1.223 1.485-2.422 2.871-3.602 1.403-1.195 2.336-2.16 2.801-2.898.461-.75.695-1.54.695-2.368 0-2.488-1.203-3.734-3.613-3.734-1.14 0-2.058.34-2.754 1.016-.574.562-.918 1.312-1.027 2.242a.574.574 0 0 1-.559.523H24.22a.516.516 0 0 1-.524-.543c.14-2.558 1.082-4.582 2.828-6.07 1.883-1.59 4.442-2.387 7.68-2.387 3.274 0 5.809.758 7.613 2.278 1.805 1.504 2.707 3.632 2.707 6.39a7.568 7.568 0 0 1-.878 3.559c-.586 1.105-1.61 2.336-3.075 3.691l-1.875 1.703c-1.172 1.079-1.843 2.336-2.015 3.782l-.059.851c-.02.281-.25.5-.531.5Zm-1.208 6.785c0-.988.348-1.796 1.043-2.43.711-.648 1.613-.972 2.707-.972 1.094 0 1.988.324 2.684.973.71.633 1.066 1.441 1.066 2.43 0 .972-.347 1.777-1.043 2.41-.68.632-1.582.953-2.707.953-1.125 0-2.035-.32-2.73-.953-.68-.633-1.02-1.438-1.02-2.41Zm0 0"/><path fill="#fff" d="M86.469 43.797c0-6.055 4.902-10.961 10.949-10.961h124.594c6.05 0 10.953 4.906 10.953 10.96v243.798c0 6.054-4.903 10.96-10.953 10.96H97.418c-6.047 0-10.95-4.906-10.95-10.96Zm0 0"/><path fill="#032068" fill-rule="evenodd" d="M85.555 43.797c0-6.559 5.312-11.875 11.863-11.875h124.594c6.55 0 11.863 5.316 11.863 11.875v243.797c0 6.558-5.313 11.875-11.863 11.875H97.418c-6.55 0-11.863-5.317-11.863-11.875ZM97.418 33.75c-5.543 0-10.04 4.496-10.04 10.047v243.797c0 5.547 4.497 10.047 10.04 10.047h124.594c5.543 0 10.039-4.5 10.039-10.047V43.797c0-5.55-4.496-10.047-10.04-10.047Zm0 0"/><path fill="#e7e8ff" d="M205.11 130.543c0 25.219-20.43 45.664-45.63 45.664-25.203 0-45.632-20.445-45.632-45.664 0-25.223 20.43-45.664 45.632-45.664 25.2 0 45.63 20.441 45.63 45.664Zm0 0"/><path fill="#fff" d="M224.277 99.488c0 11.602-9.398 21.008-20.992 21.008-11.594 0-20.992-9.406-20.992-21.008 0-11.597 9.398-21.004 20.992-21.004 11.594 0 20.992 9.407 20.992 21.004Zm0 0"/><path fill="#032068" fill-rule="evenodd" d="M203.285 79.398c-11.09 0-20.078 8.997-20.078 20.09 0 11.098 8.988 20.094 20.078 20.094s20.078-8.996 20.078-20.094c0-11.093-8.988-20.09-20.078-20.09Zm-21.902 20.09c0-12.105 9.804-21.918 21.902-21.918s21.903 9.813 21.903 21.918c0 12.11-9.805 21.922-21.903 21.922-12.097 0-21.902-9.812-21.902-21.922Zm0 0"/><path fill="#FC5050" fill-rule="evenodd" d="m197.582 99.035-6.16 6.164 6.16 6.164 6.16-6.164 6.16 6.164 6.157-6.164-6.157-6.164 6.16-6.168-6.16-6.164-6.16 6.164-6.16-6.164-6.16 6.164Zm0 0"/><path fill="#032068" d="m130.586 41.742-4.746-8.906h67.754l-5.582 9.309a9.128 9.128 0 0 1-7.828 4.433H138.64a9.128 9.128 0 0 1-8.055-4.836Zm0 0"/><path fill="#032068" d="M231.168 38.332H87.328c4.762-4.766 9.309-5.648 10.988-5.496H220.18c5.86 0 9.765 3.664 10.988 5.496ZM231.059 293.344H88.293c4.95 4.84 7.809 5.742 9.55 5.586h123.66c6.09 0 8.286-3.723 9.556-5.586Zm0 0"/><path fill="#FC5050" d="M107.457 67.523c0-1.007.82-1.824 1.828-1.824h48.602c1.008 0 1.824.817 1.824 1.824v1.95a1.825 1.825 0 0 1-1.824 1.828h-48.602a1.828 1.828 0 0 1-1.828-1.828Zm0 0"/><path fill="#032068" d="M107.457 190.82a1.83 1.83 0 0 1 1.828-1.828h48.602c1.008 0 1.824.82 1.824 1.828v1.95a1.827 1.827 0 0 1-1.824 1.828h-48.602a1.83 1.83 0 0 1-1.828-1.828ZM107.457 239.227c0-1.012.82-1.829 1.828-1.829h29.203c1.008 0 1.825.817 1.825 1.829v1.824a1.827 1.827 0 0 1-1.825 1.828h-29.203a1.83 1.83 0 0 1-1.828-1.828Zm0 0"/><path fill="#e7e8ff" fill-rule="evenodd" d="M106.547 204.52a2.736 2.736 0 0 1 2.734-2.739h97.653a2.739 2.739 0 0 1 2.738 2.739v18.265a2.74 2.74 0 0 1-2.738 2.742H109.28a2.737 2.737 0 0 1-2.734-2.742Zm2.734-.915c-.504 0-.91.41-.91.915v18.265c0 .504.406.914.91.914h97.653c.507 0 .914-.41.914-.914V204.52a.913.913 0 0 0-.914-.915ZM106.547 252.012a2.737 2.737 0 0 1 2.734-2.742h97.653a2.74 2.74 0 0 1 2.738 2.742v18.265a2.739 2.739 0 0 1-2.738 2.739H109.28a2.736 2.736 0 0 1-2.734-2.739Zm2.734-.914c-.504 0-.91.41-.91.914v18.265c0 .504.406.914.91.914h97.653c.507 0 .914-.41.914-.914v-18.265a.913.913 0 0 0-.914-.914Zm0 0"/><path fill="#032068" fill-rule="evenodd" d="M220.855 45.89h1.825v7.473h-1.825ZM216.188 46.828h1.828v6.535h-1.828ZM211.523 48.695h1.825v4.668h-1.825ZM206.86 50.563h1.824v2.8h-1.825ZM159.457 103.75c-8.305 0-15.039 6.848-15.039 15.297v10.476a2.25 2.25 0 0 0 4.5 0v-10.761c0-5.922 4.719-10.723 10.539-10.723 5.824 0 10.543 4.8 10.543 10.723v10.199a2.247 2.247 0 1 0 4.496 0v-9.914c0-8.45-6.734-15.297-15.039-15.297Zm0 0"/><path fill="#FC5050" d="M140.27 129.324a2.74 2.74 0 0 1 2.738-2.742h32.898a2.74 2.74 0 0 1 2.739 2.742v24.617a2.74 2.74 0 0 1-2.739 2.743h-32.898a2.74 2.74 0 0 1-2.738-2.743Zm0 0"/><path fill="#fff" fill-rule="evenodd" d="M161.906 142.879a3.897 3.897 0 0 0 1.457-3.047 3.904 3.904 0 1 0-7.808 0c0 1.34.675 2.527 1.703 3.23l-.871 3.66a.87.87 0 0 0 .843 1.071h4.747a.868.868 0 0 0 .843-1.07Zm0 0"/><path fill="#032068" d="M216.668 210.914h-22.203c-1.375 0-2.258-1.473-1.61-2.687l11.102-20.786c.688-1.289 2.531-1.289 3.219 0l11.101 20.786c.653 1.214-.23 2.687-1.609 2.687Zm0 0"/><path fill="#fff" d="M204.55 203.105h1.997l.316-8.632h-2.629Zm2.384 2.688c0-.426-.125-.777-.387-1.05a1.293 1.293 0 0 0-.98-.415c-.391 0-.715.137-.973.414-.266.274-.395.625-.395 1.051 0 .43.13.781.395 1.059.258.273.582.406.972.406a1.3 1.3 0 0 0 .98-.406c.263-.278.388-.63.388-1.059Zm0 0"/><path fill="#FC5050" d="M121.23 213.238a2.325 2.325 0 1 1-4.647-.001 2.325 2.325 0 0 1 4.647.001ZM132.387 213.238a2.325 2.325 0 1 1-4.647-.001 2.325 2.325 0 0 1 4.647.001ZM143.543 213.238a2.325 2.325 0 1 1-4.65 0 2.325 2.325 0 0 1 4.65 0ZM154.7 213.238a2.325 2.325 0 1 1-4.65 0 2.325 2.325 0 0 1 4.65 0ZM165.852 213.238a2.325 2.325 0 1 1-4.647-.001 2.325 2.325 0 0 1 4.647.001ZM177.008 213.238a2.322 2.322 0 0 1-2.324 2.325 2.322 2.322 0 0 1-2.325-2.325 2.322 2.322 0 0 1 2.325-2.324 2.322 2.322 0 0 1 2.324 2.324Zm0 0"/><path fill="#efcb96" d="M53.215 124.438c-12.942 9.164-7.5 25.453-5.063 31.765l-1.066 12.883c1.105 4.055 5.117 12.164 12.32 12.164s10.504-6.922 11.254-10.383l-1.125-9.777c8.438-3.05 9-15.27 8.438-25.047-.668-11.606-13.356-19.676-24.758-11.606Zm0 0"/><path fill="#032068" d="m48.559 153.012-1.121 11.074c-.372-.82-1.231-3.2-1.68-6.152-.563-3.692-9.531-17.848-6.727-28.309 2.242-8.367 8.407-8 11.211-6.766 1.68-3.078 11.77-13.539 26.348-12.308 14.574 1.23 16.254 22.152 4.484 25.23-9.418 2.461-19.996 1.024-24.105 0-.375.82-1.457 3.567-2.805 8-1.68 5.54-1.68 6.77-2.242 3.074-.559-3.69-2.8-10.46-5.606-3.69-2.242 5.413.563 8.82 2.243 9.847ZM56.7 160.867c3.859 2.278 9.823.95 12.323 0l.536 3.98c-5.57 1.368-10.895-2.081-12.86-3.98Zm0 0"/><path fill="#FC5050" d="M58.914 174.418c8.07 0 11.977-4.496 13.152-7.184.137-.312.434-.535.778-.515 4.453.222 10.773 2.93 12.355 3.472a.676.676 0 0 1 .121.055c12.45 6.695 24.258 18.543 31.657 61.281 2.398 17.836 6.68 55.047 4.625 61.223-2.055 6.172-16.274 7.031-23.122 6.688H8.555c-2.38 0-1.64-3.754-.637-6.602.227-.645-.39-1.356-1.066-1.262-4.098.567-11.915-.176-20.391-6.543-16.441-13.375 2.57-66.879 14.902-92.09 9.688-19.808 32.727-25.687 43.61-26.214.347-.016.652.207.793.527 1.183 2.687 5.093 7.164 13.148 7.164Zm0 0"/><path fill="#032068" d="M4.973 290.617c-5.653-12.023-17.621-23.906-24.02-29.312a.752.752 0 0 0-1.246.554c-.152 5.528.59 15.649 4.7 21.63 4.19 6.109 14.312 7.968 19.855 8.206a.752.752 0 0 0 .71-1.078ZM57.371 259.824c-23.43 23.871-42.992 31.555-49.844 32.41L6.5 296.867c20.145-3.293 42.309-26.07 50.871-37.043Zm0 0"/><path fill="#fff" d="M63.023 252.14v-34.859a.79.79 0 0 1 .66-.785l16.899-2.82c.488-.082.934.3.926.797l-.492 33.922a.793.793 0 0 1-.618.765l-16.406 3.754a.793.793 0 0 1-.969-.773Zm0 0"/><path fill="#032068" fill-rule="evenodd" d="M80.453 212.89a1.59 1.59 0 0 1 1.848 1.594l-.492 33.922a1.59 1.59 0 0 1-1.235 1.528l-16.406 3.754a1.585 1.585 0 0 1-1.938-1.547v-34.86a1.59 1.59 0 0 1 1.325-1.57Zm.262 1.57-16.899 2.821v34.86l16.407-3.758Zm0 0"/><path fill="#032068" d="M18.832 241.816c-.824 1.645-9.594 5.832-13.875 7.72 4.523-1.235 31.004-10.466 43.676-14.923-3.594 0-24.664 6.176-25.176 5.145-.41-.824 1.2-11.317 2.055-16.465-1.883 5.488-5.86 16.879-6.68 18.523Zm0 0"/><path fill="#efcb96" d="M56.344 232.555c-2.059 3.293-4.282 4.804-5.14 5.144l3.597 11.836c4.625-2.574 12.332-2.058 17.984-5.144 5.653-3.09 4.625-18.008 1.543-16.98-2.469.823-8.566 3.429-11.305 4.632v-7.203c-3.597 1.543-4.113 3.601-6.68 7.715Zm0 0"/><path fill="#FC5050" d="M88.824 168.43c-4.008 0-13.808 9.367-13.808 13.824-.891 3.57 22.714 54.41 40.09 63.777 17.37 9.367 31.624-2.23 30.289-20.07-1.403-18.73-51.922-57.531-56.57-57.531Zm0 0"/><path fill="#032068" d="M145.395 224.625c-16.395 3.922-23.461 17.395-24.946 23.637 3.86 1.039 11.137 4.46 19.602-4.012 6.066-6.078 6.234-15.46 5.344-19.625ZM95.504 224.18c10.691 17.84 20.195 23.191 23.61 23.636l.89 5.797c-2.672-.445-9.086-4.46-18.707-16.949-13.543-17.125-23.61-43.406-26.281-54.41 2.226 7.582 7.125 19.625 20.488 41.926Zm0 0"/><path fill="#efcb96" d="M75.906 155.121c.625.953 6.438 10.453 8.906 15.082-2.34 2.383-7.253 7.145-8.187 7.145-1.172 0-7.8-1.985-10.531-5.555-2.73-3.574 1.558-7.938 1.558-8.336 0-.398-7.02-3.574-8.187-5.16-1.172-1.586.402-3.246 2.187-2.8 1.016 0 7.57 3.565 9.797 4.456.938-.316 2.23-1.336 4.457-4.832Zm0 0"/><path fill="#032068" d="M58.977 157.727c.359 2.496 3.714 4.605 5.347 5.351l1.336-.894a67.51 67.51 0 0 1-4.008-2.23c-1.785-1.067-2.527-1.93-2.675-2.227ZM65.215 173.336c-3.207-3.211-1.633-6.988-.445-8.477l2.226-.445c-2.672 4.461-1.039 7.434 0 8.027Zm0 0"/></svg>
